<svg t="1648983416631" class="icon" viewBox="0 0 1024 1024" version="1.1" xmlns="http://www.w3.org/2000/svg" p-id="962" width="200" height="200">
  <path d="M810.666667 128a85.333333 85.333333 0 0 1 85.333333 85.333333v384a85.333333 85.333333 0 0 1-85.333333 85.333334h-128v128a85.333333 85.333333 0 0 1-85.333334 85.333333H213.333333a85.333333 85.333333 0 0 1-85.333333-85.333333v-384a85.333333 85.333333 0 0 1 85.333333-85.333334h127.957334L341.333333 213.333333a85.333333 85.333333 0 0 1 85.333334-85.333333h384z m0 85.333333h-384v384h384V213.333333z" fill="currentColor" p-id="963"></path>
</svg>