<svg t="1648983134597" class="icon" viewBox="0 0 1024 1024" version="1.1" xmlns="http://www.w3.org/2000/svg" p-id="1126" width="200" height="200">
  <path d="M810.666667 128a85.333333 85.333333 0 0 1 85.333333 85.333333v384a85.333333 85.333333 0 0 1-85.333333 85.333334h-128v128a85.333333 85.333333 0 0 1-85.333334 85.333333H213.333333a85.333333 85.333333 0 0 1-85.333333-85.333333v-384a85.333333 85.333333 0 0 1 85.333333-85.333334h128V213.333333a85.333333 85.333333 0 0 1 85.333334-85.333333h384zM341.333333 426.666667H213.333333v384h384v-128h-170.666666a85.333333 85.333333 0 0 1-85.333334-85.333334v-170.666666z m341.333334 0v170.666666h128V213.333333h-384v128h170.666666a85.333333 85.333333 0 0 1 85.333334 85.333334z" fill="currentColor" p-id="1127"></path>
</svg>