<svg t="1648983186932" class="icon" viewBox="0 0 1024 1024" version="1.1" xmlns="http://www.w3.org/2000/svg" p-id="1454" width="200" height="200">
  <path d="M810.666667 128a85.333333 85.333333 0 0 1 85.333333 85.333333v384a85.333333 85.333333 0 0 1-85.333333 85.333334h-128v128a85.333333 85.333333 0 0 1-85.333334 85.333333H213.333333a85.333333 85.333333 0 0 1-85.333333-85.333333v-384a85.333333 85.333333 0 0 1 85.333333-85.333334h128V213.333333a85.333333 85.333333 0 0 1 85.333334-85.333333h384z m-213.333334 213.333333H341.333333v256a85.333333 85.333333 0 0 0 78.933334 85.12L426.666667 682.666667h256v-256a85.333333 85.333333 0 0 0-78.933334-85.12L597.333333 341.333333z" fill="currentColor" p-id="1455"></path>
</svg>