<svg t="1648629997634" class="icon" viewBox="0 0 1024 1024" version="1.1" xmlns="http://www.w3.org/2000/svg" p-id="30982" width="200" height="200">
  <path d="M899.38 839.69h-19.41V294.77c0-57.5-37-107.29-92.07-123.89l-222.67-67.04c-39.53-11.94-81.29-4.6-114.48 20.05-33.17 24.65-52.21 62.5-52.21 103.84v66.93l-187.38 93.41c-44.21 22.03-71.67 66.41-71.67 115.8v335.82h-14.87c-23.77 0-43.04 19.27-43.04 43.04s19.27 43.04 43.04 43.04h774.75c23.77 0 43.04-19.27 43.04-43.04s-19.26-43.04-43.03-43.04zM225.57 503.86c0-16.54 9.18-31.38 23.98-38.75l148.99-74.27v448.85H225.57V503.86z m259.06 335.83V227.72c0-13.83 6.37-26.5 17.48-34.76 11.11-8.26 25.04-10.72 38.3-6.7l222.66 67.04c18.43 5.55 30.82 22.21 30.82 41.47v544.92H484.63z" fill="currentColor" p-id="30983"></path>
  <path d="M695.6 331.65H582.91c-23.77 0-43.04 19.27-43.04 43.04s19.27 43.04 43.04 43.04H695.6c23.77 0 43.04-19.27 43.04-43.04 0-23.76-19.27-43.04-43.04-43.04zM695.6 509.41H582.91c-23.77 0-43.04 19.27-43.04 43.04s19.27 43.04 43.04 43.04H695.6c23.77 0 43.04-19.27 43.04-43.04s-19.27-43.04-43.04-43.04zM695.6 680.78H582.91c-23.77 0-43.04 19.27-43.04 43.04s19.27 43.04 43.04 43.04H695.6c23.77 0 43.04-19.27 43.04-43.04s-19.27-43.04-43.04-43.04z" fill="currentColor" p-id="30984"></path>
</svg>