<svg t="1648630092209" class="icon" viewBox="0 0 1024 1024" version="1.1" xmlns="http://www.w3.org/2000/svg" p-id="31586" width="200" height="200">
  <path d="M141.375 437.656 461 673.75c28.219 17.375 74.125 17.375 102.313 0l319.625-236.094c28.188-17.344 28.188-45.594 0-62.969L563.313 174.219c-28.188-17.344-74.094-17.344-102.313 0L141.375 374.688C113.188 392.063 113.188 420.313 141.375 437.656zM512.156 228.094l292.156 178.094c0.563-1.719 2.875 1 0 0L547.625 608.25c-19.563 11.625-51.344 11.625-70.875 0L220.031 406.188 512.156 228.094 512.156 228.094zM882.938 552.75l-7.25-3.75L563.313 780.563c-28.188 17.375-74.094 17.375-102.313 0L148.656 549l-7.281 3.75c-28.188 17.375-28.188 45.625 0 63L461 851.813c28.219 17.313 74.125 17.313 102.313 0L882.938 615.75C911.125 598.375 911.125 570.125 882.938 552.75L882.938 552.75z" p-id="31587"></path>
</svg>