<svg t="1648630485656" class="icon" viewBox="0 0 1024 1024" version="1.1" xmlns="http://www.w3.org/2000/svg" p-id="48726" width="200" height="200">
  <path d="M416 608v64c0 35.2-28.8 64-64 64H192c-35.2 0-64-28.8-64-64V352c0-35.2 28.8-64 64-64h160c35.2 0 64 28.8 64 64v64h64v-64c0-70.4-57.6-128-128-128H192c-70.4 0-128 57.6-128 128v320c0 70.4 57.6 128 128 128h160c70.4 0 128-57.6 128-128v-64h-64zM832 224H672c-70.4 0-128 57.6-128 128v64h64v-64c0-35.2 28.8-64 64-64h160c35.2 0 64 28.8 64 64v320c0 35.2-28.8 64-64 64H672c-35.2 0-64-28.8-64-64v-64h-64v64c0 70.4 57.6 128 128 128h160c70.4 0 128-57.6 128-128V352c0-70.4-57.6-128-128-128z" p-id="48727"></path>
  <path d="M736 544H288c-17.6 0-32-14.4-32-32s14.4-32 32-32h448c17.6 0 32 14.4 32 32s-14.4 32-32 32z" p-id="48728"></path>
</svg>