<svg t="1648630301751" class="icon" viewBox="0 0 1024 1024" version="1.1" xmlns="http://www.w3.org/2000/svg" p-id="39125" width="200" height="200">
  <path d="M768 191.146667a360.533333 360.533333 0 0 0-512 512l224.853333 225.28a42.666667 42.666667 0 0 0 60.586667 0L768 701.013333a360.533333 360.533333 0 0 0 0-509.866666zM706.986667 640L512 835.84 317.013333 640a275.626667 275.626667 0 1 1 389.973334 0zM384 316.16a184.32 184.32 0 0 0 0 260.266667 183.893333 183.893333 0 0 0 314.026667-128 180.906667 180.906667 0 0 0-53.76-130.133334A183.466667 183.466667 0 0 0 384 316.16z m200.106667 199.68a99.413333 99.413333 0 1 1 28.586666-69.546667 99.413333 99.413333 0 0 1-30.72 69.546667z" p-id="39126"></path>
</svg>