<svg t="1648758817328" class="icon" viewBox="0 0 1024 1024" version="1.1" xmlns="http://www.w3.org/2000/svg" p-id="4669" width="200" height="200">
  <path d="M725.333333 725.333333v128a42.666667 42.666667 0 0 1-42.666666 42.666667H170.666667a42.666667 42.666667 0 0 1-42.666667-42.666667V341.333333a42.666667 42.666667 0 1 1 85.333333 0v469.333334h426.666667v-128a42.666667 42.666667 0 0 1 42.666667-42.666667h128V213.333333H384v426.666667h128a42.666667 42.666667 0 0 1 0 85.333333H341.333333a42.666667 42.666667 0 0 1-42.666666-42.666666V170.666667a42.666667 42.666667 0 0 1 42.666666-42.666667h512a42.666667 42.666667 0 0 1 42.666667 42.666667v512a42.666667 42.666667 0 0 1-42.666667 42.666666h-128z" p-id="4670"></path>
</svg>