<svg t="1648529334705" class="icon" viewBox="0 0 1024 1024" version="1.1" xmlns="http://www.w3.org/2000/svg" p-id="22846" width="200" height="200">
  <path d="M725.504 422.826667a42.666667 42.666667 0 1 1 84.992 7.68l-42.666667 469.333333A42.666667 42.666667 0 0 1 725.333333 938.666667H298.666667a42.666667 42.666667 0 0 1-42.496-38.826667l-42.666667-469.333333A42.666667 42.666667 0 0 1 256 384h384a42.666667 42.666667 0 0 1 0 85.333333H302.72l34.901333 384h348.757334l39.125333-430.506666zM256 256v42.666667a42.666667 42.666667 0 1 1-85.333333 0V213.333333a42.666667 42.666667 0 0 1 42.666666-42.666666h144.298667l30.890667-61.738667A42.666667 42.666667 0 0 1 426.666667 85.333333h170.666666a42.666667 42.666667 0 0 1 38.144 23.594667L666.368 170.666667H810.666667a42.666667 42.666667 0 0 1 42.666666 42.666666v85.333334a42.666667 42.666667 0 0 1-85.333333 0V256h-128a42.666667 42.666667 0 0 1-38.144-23.594667L570.965333 170.666667h-117.930666l-30.890667 61.738666A42.666667 42.666667 0 0 1 384 256H256z" p-id="22847"></path>
</svg>