<svg t="1647342265232" class="icon" viewBox="0 0 1024 1024" version="1.1" xmlns="http://www.w3.org/2000/svg" p-id="8248" width="200" height="200">
  <path d="M469.333333 561.92V469.333333a42.666667 42.666667 0 0 1 42.666667-42.666666h298.666667a42.666667 42.666667 0 0 1 42.666666 42.666666v426.666667a42.666667 42.666667 0 0 1-42.666666 42.666667H213.333333a42.666667 42.666667 0 0 1-42.666666-42.666667V469.333333a42.666667 42.666667 0 0 1 42.666666-42.666666h85.333334V298.666667a213.333333 213.333333 0 1 1 426.666666 0 42.666667 42.666667 0 0 1-85.333333 0 128 128 0 0 0-256 0v170.666666a42.666667 42.666667 0 0 1-42.666667 42.666667H256v341.333333h512v-341.333333h-213.333333v49.92a128.042667 128.042667 0 1 1-85.333334 0zM512 725.333333a42.666667 42.666667 0 1 0 0-85.333333 42.666667 42.666667 0 0 0 0 85.333333z" p-id="8249"></path>
</svg>