<svg t="1647193939072" class="icon" viewBox="0 0 1024 1024" version="1.1" xmlns="http://www.w3.org/2000/svg" p-id="5100" width="200" height="200">
  <path d="M620.16 848.426667L384 730.368l-236.928 118.442667A42.666667 42.666667 0 0 1 85.333333 810.666667V341.333333a42.666667 42.666667 0 0 1 23.594667-38.144l255.232-127.616a42.496 42.496 0 0 1 39.68 0L640 293.632l236.928-118.442667A42.666667 42.666667 0 0 1 938.666667 213.333333v469.333334a42.666667 42.666667 0 0 1-23.594667 38.144l-255.232 127.616a42.496 42.496 0 0 1-39.68 0zM597.333333 741.632V469.333333a42.666667 42.666667 0 0 1 85.333334 0v272.298667l170.666666-85.333333V282.368l-194.261333 97.109333a42.666667 42.666667 0 0 1-38.144 0L426.666667 282.368V554.666667a42.666667 42.666667 0 0 1-85.333334 0V282.368l-170.666666 85.333333v373.930667l194.261333-97.109333a42.666667 42.666667 0 0 1 38.144 0L597.333333 741.632z" p-id="5101"></path>
</svg>