<svg t="1648192076938" class="icon" viewBox="0 0 1024 1024" version="1.1" xmlns="http://www.w3.org/2000/svg" p-id="4863" width="200" height="200">
  <path d="M469.333333 469.333333V341.333333a42.666667 42.666667 0 0 1 85.333334 0v341.333334a42.666667 42.666667 0 0 1-85.333334 0v-128H341.333333a42.666667 42.666667 0 0 1 0-85.333334h128z m42.666667-298.666666a42.666667 42.666667 0 0 1 0-85.333334c235.648 0 426.666667 191.018667 426.666667 426.666667s-191.018667 426.666667-426.666667 426.666667S85.333333 747.648 85.333333 512a426.538667 426.538667 0 0 1 224.426667-375.765333 42.666667 42.666667 0 0 1 40.533333 75.093333A341.333333 341.333333 0 1 0 512 170.666667z m128 384a42.666667 42.666667 0 0 1 0-85.333334h42.666667a42.666667 42.666667 0 0 1 0 85.333334h-42.666667z" p-id="4864"></path>
</svg>