<svg t="1647196753383" class="icon" viewBox="0 0 1024 1024" version="1.1" xmlns="http://www.w3.org/2000/svg" p-id="8098" width="200" height="200">
  <path d="M298.666667 256V170.666667a42.666667 42.666667 0 0 1 42.666666-42.666667h341.333334a42.666667 42.666667 0 0 1 42.666666 42.666667v85.333333h128a42.666667 42.666667 0 0 1 42.666667 42.666667v170.666666a42.666667 42.666667 0 0 1-85.333333 0V341.333333H213.333333v213.333334h177.92a128.042667 128.042667 0 0 1 241.493334 0H810.666667a42.666667 42.666667 0 0 1 42.666666 42.666666v256a42.666667 42.666667 0 0 1-42.666666 42.666667H213.333333a42.666667 42.666667 0 0 1-42.666666-42.666667v-128a42.666667 42.666667 0 0 1 85.333333 0v85.333334h512v-170.666667h-135.253333a128.042667 128.042667 0 0 1-241.493334 0H170.666667a42.666667 42.666667 0 0 1-42.666667-42.666667V298.666667a42.666667 42.666667 0 0 1 42.666667-42.666667h128z m213.333333 384a42.666667 42.666667 0 1 0 0-85.333333 42.666667 42.666667 0 0 0 0 85.333333zM384 213.333333v42.666667h256V213.333333H384z" p-id="8099"></path>
</svg>