<svg t="1647541686063" class="icon" viewBox="0 0 1024 1024" version="1.1" xmlns="http://www.w3.org/2000/svg" p-id="16330" width="200" height="200">
  <path d="M597.333333 273.664V384a42.666667 42.666667 0 0 1-38.698666 42.496C295.338667 451.157333 170.666667 575.829333 170.666667 810.666667a42.666667 42.666667 0 0 1-85.333334 0c0-268.586667 146.346667-426.496 426.666667-464.725334V170.666667c0-37.973333 45.952-57.045333 72.832-30.165334l341.333333 341.333334a42.666667 42.666667 0 0 1 0 60.330666l-341.333333 341.333334c-26.88 26.88-72.832 7.850667-72.832-30.165334v-170.666666H384a42.666667 42.666667 0 0 1 0-85.333334h170.666667a42.666667 42.666667 0 0 1 42.666666 42.666667v110.336L835.669333 512 597.333333 273.664z" p-id="16331"></path>
</svg>