<svg t="1647342711034" class="icon" viewBox="0 0 1024 1024" version="1.1" xmlns="http://www.w3.org/2000/svg" p-id="8409" width="200" height="200">
  <path d="M619.52 431.232l43.093333 43.093333 160.426667 49.024a42.666667 42.666667 0 0 1 29.781333 34.56l42.709334 289.194667A42.666667 42.666667 0 0 1 853.333333 896H170.88a42.666667 42.666667 0 0 1-42.24-48.853333l42.496-289.194667a42.666667 42.666667 0 0 1 26.112-33.28l128-52.181333a42.666667 42.666667 0 0 1 32.170667 79.018666l-105.386667 42.965334L220.245333 810.666667H803.84l-31.573333-213.589334-144.810667-44.288a42.666667 42.666667 0 0 1-17.706667-10.624l-74.410666-74.410666a170.666667 170.666667 0 1 1 84.138666-36.522667zM512 384a85.333333 85.333333 0 1 0 0-170.666667 85.333333 85.333333 0 0 0 0 170.666667z" p-id="8410"></path>
</svg>